<?xml version="1.0" encoding="utf-8"?>
<!-- Generator: Adobe Illustrator 16.2.0, SVG Export Plug-In . SVG Version: 6.00 Build 0)  -->
<!DOCTYPE svg PUBLIC "-//W3C//DTD SVG 1.1//EN" "http://www.w3.org/Graphics/SVG/1.1/DTD/svg11.dtd">
<svg version="1.1" id="Layer_1" xmlns="http://www.w3.org/2000/svg" xmlns:xlink="http://www.w3.org/1999/xlink" x="0px" y="0px"
	 width="34.016px" height="34.016px" viewBox="-1.008 -1.008 34.016 34.016" enable-background="new -1.008 -1.008 34.016 34.016"
	 xml:space="preserve">
<g id="Picture">
	<circle fill="#00BFA5" cx="5.846" cy="6.324" r="3.048"/>
	<path fill="#00BFA5" d="M16.744,7.875c-0.537-0.96-1.454-0.983-2.038-0.05l-2.871,4.587c-0.584,0.934-1.747,1.229-2.585,0.658
		c-0.839-0.571-2.106-0.352-2.818,0.486l-2.86,3.372c-0.712,0.84-0.394,1.525,0.706,1.525h16.378c1.1,0,1.561-0.785,1.023-1.748
		L16.744,7.875z"/>
</g>
<path fill="#00BFA5" d="M26.491,19.691V0.034c0-0.57-0.467-1.038-1.037-1.038H0.029c-0.57,0-1.037,0.468-1.037,1.038v25.08
	c0,0.57,0.467,1.039,1.037,1.039h19.816C19.95,22.566,22.882,19.691,26.491,19.691z M1.617,1.795h21.947v17.75H1.617V1.795z"/>
<g>
	<path fill="#00BFA5" d="M26.491,19.928c-3.545,0-6.42,2.875-6.42,6.42s2.875,6.42,6.42,6.42s6.42-2.875,6.42-6.42
		S30.036,19.928,26.491,19.928z M30.577,26.93h-3.502v3.502h-1.166V26.93h-3.504v-1.166h3.504v-3.502h1.166v3.502h3.502V26.93z"/>
	<circle fill="none" stroke="#FFFFFF" stroke-width="0.9064" stroke-miterlimit="10" cx="26.491" cy="26.348" r="6.656"/>
</g>
</svg>
